<svg xmlns="http://www.w3.org/2000/svg" width="900" height="600"><path fill="#d2b1fd" d="m0 97 13.7 24c13.6 24 41 72 68.3 77s54.7-33 81.8-52c27.2-19 54.2-19 81.4-19 27.1 0 54.5 0 81.8 4s54.7 12 82 17 54.7 7 82 0 54.7-23 82-15 54.7 40 81.8 57c27.2 17 54.2 19 81.4 3 27.1-16 54.5-50 81.8-67s54.7-17 68.3-17H900V0H0Z"/><path fill="#c79ffc" d="m0 163 13.7 27c13.6 27 41 81 68.3 92s54.7-21 81.8-43c27.2-22 54.2-34 81.4-43 27.1-9 54.5-15 81.8-6s54.7 33 82 48 54.7 21 82 5 54.7-54 82-47 54.7 59 81.8 89c27.2 30 54.2 38 81.4 15 27.1-23 54.5-77 81.8-100s54.7-15 68.3-11l13.7 4v-86h-13.7c-13.6 0-41 0-68.3 17s-54.7 51-81.8 67c-27.2 16-54.2 14-81.4-3-27.1-17-54.5-49-81.8-57s-54.7 8-82 15-54.7 5-82 0-54.7-13-82-17-54.7-4-81.8-4c-27.2 0-54.2 0-81.4 19-27.1 19-54.5 57-81.8 52s-54.7-53-68.3-77L0 95Z"/><path fill="#bc8dfa" d="m0 409 13.7-1c13.6-1 41-3 68.3 1s54.7 14 81.8 13c27.2-1 54.2-13 81.4-16 27.1-3 54.5 3 81.8 6s54.7 3 82 9 54.7 18 82 17 54.7-15 82-22 54.7-7 81.8-5c27.2 2 54.2 6 81.4 12 27.1 6 54.5 14 81.8 17s54.7 1 68.3 0l13.7-1V191l-13.7-4c-13.6-4-41-12-68.3 11s-54.7 77-81.8 100c-27.2 23-54.2 15-81.4-15-27.1-30-54.5-82-81.8-89s-54.7 31-82 47-54.7 10-82-5-54.7-39-82-48-54.7-3-81.8 6c-27.2 9-54.2 21-81.4 43-27.1 22-54.5 54-81.8 43s-54.7-65-68.3-92L0 161Z"/><path fill="#ac79f0" d="m0 565 13.7-5c13.6-5 41-15 68.3-22s54.7-11 81.8-14c27.2-3 54.2-5 81.4 1 27.1 6 54.5 20 81.8 19s54.7-17 82-20 54.7 7 82 12 54.7 5 82 5 54.7 0 81.8-5c27.2-5 54.2-15 81.4-22 27.1-7 54.5-11 81.8-6s54.7 19 68.3 26l13.7 7V437l-13.7 1c-13.6 1-41 3-68.3 0s-54.7-11-81.8-17c-27.2-6-54.2-10-81.4-12-27.1-2-54.5-2-81.8 5s-54.7 21-82 22-54.7-11-82-17-54.7-6-82-9-54.7-9-81.8-6c-27.2 3-54.2 15-81.4 16-27.1 1-54.5-9-81.8-13s-54.7-2-68.3-1L0 407Z"/><path fill="#9c66e5" d="M0 601h900v-62l-13.7-7c-13.6-7-41-21-68.3-26s-54.7-1-81.8 6c-27.2 7-54.2 17-81.4 22-27.1 5-54.5 5-81.8 5s-54.7 0-82-5-54.7-15-82-12-54.7 19-82 20-54.7-13-81.8-19c-27.2-6-54.2-4-81.4-1-27.1 3-54.5 7-81.8 14s-54.7 17-68.3 22L0 563Z"/></svg>